<mxfile host="app.diagrams.net" agent="Mozilla/5.0 (Windows NT 10.0; Win64; x64) AppleWebKit/537.36 (KHTML, like Gecko) Chrome/134.0.0.0 Safari/537.36" version="26.1.0">
  <diagram name="Page-1" id="DkmVAgK9mVS-6hh-HVNe">
    <mxGraphModel dx="1195" dy="720" grid="1" gridSize="10" guides="1" tooltips="1" connect="1" arrows="1" fold="1" page="1" pageScale="1" pageWidth="850" pageHeight="1100" math="0" shadow="0">
      <root>
        <mxCell id="0" />
        <mxCell id="1" parent="0" />
        <mxCell id="ezqf81q41v17hmRbHVGL-1" value="&lt;div&gt;Server&lt;/div&gt;Raspberry Pi 5" style="image;html=1;image=img/lib/clip_art/computers/Server_128x128.png" vertex="1" parent="1">
          <mxGeometry x="30" y="128" width="80" height="80" as="geometry" />
        </mxCell>
        <mxCell id="ezqf81q41v17hmRbHVGL-16" style="edgeStyle=orthogonalEdgeStyle;rounded=0;orthogonalLoop=1;jettySize=auto;html=1;exitX=0;exitY=0.5;exitDx=0;exitDy=0;exitPerimeter=0;entryX=1;entryY=0.5;entryDx=0;entryDy=0;" edge="1" parent="1" source="ezqf81q41v17hmRbHVGL-2" target="ezqf81q41v17hmRbHVGL-1">
          <mxGeometry relative="1" as="geometry" />
        </mxCell>
        <mxCell id="ezqf81q41v17hmRbHVGL-2" value="5G Router&lt;div&gt;TP-Link Deco&lt;/div&gt;" style="outlineConnect=0;dashed=0;verticalLabelPosition=bottom;verticalAlign=top;align=center;html=1;shape=mxgraph.aws3.router;fillColor=#F58536;gradientColor=none;" vertex="1" parent="1">
          <mxGeometry x="192" y="132" width="69" height="72" as="geometry" />
        </mxCell>
        <mxCell id="ezqf81q41v17hmRbHVGL-17" style="edgeStyle=orthogonalEdgeStyle;rounded=0;orthogonalLoop=1;jettySize=auto;html=1;exitX=0.16;exitY=0.55;exitDx=0;exitDy=0;exitPerimeter=0;" edge="1" parent="1" source="ezqf81q41v17hmRbHVGL-5" target="ezqf81q41v17hmRbHVGL-2">
          <mxGeometry relative="1" as="geometry" />
        </mxCell>
        <mxCell id="ezqf81q41v17hmRbHVGL-5" value="" style="ellipse;shape=cloud;whiteSpace=wrap;html=1;" vertex="1" parent="1">
          <mxGeometry x="280" y="100" width="239" height="122" as="geometry" />
        </mxCell>
        <mxCell id="ezqf81q41v17hmRbHVGL-8" value="Cloudflare Tunnel&lt;br&gt;Port 80" style="image;aspect=fixed;perimeter=ellipsePerimeter;html=1;align=center;shadow=0;dashed=0;spacingTop=3;image=img/lib/active_directory/tunnel.svg;" vertex="1" parent="1">
          <mxGeometry x="320" y="138" width="180" height="36" as="geometry" />
        </mxCell>
        <mxCell id="ezqf81q41v17hmRbHVGL-10" value="&lt;div&gt;&lt;span style=&quot;background-color: transparent; color: light-dark(rgb(0, 0, 0), rgb(255, 255, 255));&quot;&gt;Cloudflare&lt;/span&gt;&lt;/div&gt;" style="outlineConnect=0;dashed=0;verticalLabelPosition=bottom;verticalAlign=top;align=center;html=1;shape=mxgraph.aws3.router;fillColor=#F58534;gradientColor=none;" vertex="1" parent="1">
          <mxGeometry x="542.48" y="145.09" width="82.97" height="33" as="geometry" />
        </mxCell>
        <mxCell id="ezqf81q41v17hmRbHVGL-11" value="Internet" style="ellipse;shape=cloud;whiteSpace=wrap;html=1;" vertex="1" parent="1">
          <mxGeometry x="660" y="110" width="180" height="94" as="geometry" />
        </mxCell>
        <mxCell id="ezqf81q41v17hmRbHVGL-12" style="edgeStyle=orthogonalEdgeStyle;rounded=0;orthogonalLoop=1;jettySize=auto;html=1;exitX=0.16;exitY=0.55;exitDx=0;exitDy=0;exitPerimeter=0;entryX=1;entryY=0.5;entryDx=0;entryDy=0;entryPerimeter=0;" edge="1" parent="1" source="ezqf81q41v17hmRbHVGL-11" target="ezqf81q41v17hmRbHVGL-10">
          <mxGeometry relative="1" as="geometry" />
        </mxCell>
        <mxCell id="ezqf81q41v17hmRbHVGL-13" style="edgeStyle=orthogonalEdgeStyle;rounded=0;orthogonalLoop=1;jettySize=auto;html=1;exitX=0;exitY=0.5;exitDx=0;exitDy=0;exitPerimeter=0;entryX=0.908;entryY=0.5;entryDx=0;entryDy=0;entryPerimeter=0;" edge="1" parent="1" source="ezqf81q41v17hmRbHVGL-10" target="ezqf81q41v17hmRbHVGL-5">
          <mxGeometry relative="1" as="geometry" />
        </mxCell>
        <mxCell id="ezqf81q41v17hmRbHVGL-20" value="" style="shape=image;verticalLabelPosition=bottom;labelBackgroundColor=default;verticalAlign=top;aspect=fixed;imageAspect=0;image=data:image/jpeg,/9j/4AAQSkZJRgABAQAAAQABAAD/2wCEAAMCAgICAgICAgICAgICAggCAgICAgIHBwYIAgICAgICAgICAgYFAgIGAgICBQoFBQcICQkJAgULDQoIDQYICQgBAwQEBgUGCAYGCAgICAgICAgICAgICAgICAgICAgICAgICAgICAgICAgICAgICAgICAgICAgICAgICAgICAgICP/AABEIA4QDhAMBIgACEQEDEQH/xAAdAAEAAwACAwEAAAAAAAAAAAAAAQcIAgYDBAUJ/8QAVhABAAECAwMGCQgFCQUHAwUAAAECAwQFEQYSIQcxQVFSkhMYIlZhgZHR0wgXMnGhscHSFCNCVfAVYnKCk5SisuEkM0NTVBYlNGNzg/GVwuMmNTZ0df/EABwBAQABBQEBAAAAAAAAAAAAAAAHAgQFBggBA//EAEcRAQACAAMDBwYKCAUEAwAAAAABAgMEEQUhMQYWQVFxkdISIlRhgZITIzJCUlNigqHRFBVDcpOiscIzY7LB4oPT4fBEw/H/2gAMAwEAAhEDEQA/AP1TAAAAAAAAAAAAAAAAAAAAAAAAAAAAAAAAAAAAAAAAAAAAAAAAAAAAAAAAAAAAAAAAAAAAAAAAAAAAAAAAAAAAAAAAAAAAAAAAAAAAAAAAAAAAAAAAAAAAAAAAAAAAAAAAAAAAAAAAAAAAAAAAAAAAAAAAAAAAAAAAAAAAAAAAAAAAAAAAAAAAAAAAAAAAAAAAAAAAAAAAAAAAAAAAAAAAAAAAAAAAAAAAAAAAAAAAAAAAAAAAAAAAAAAAAAAAAAAAAAAAAAAAAAAAAAAAAAAAAAAAAAAAAAAAAAAAAAAAAAAAAAAAAAAAAAAAAAAAAAAAAAAAAAAAAAAAAAAAAAAAAAAAAAAAAAAAAAAAAAAAAAAAAAAAAAAAAAAAAAAAAAAAAAAAAAAAAAAAAAAAAAAAAAAAAAAAAAAAAAAAAAAAAAAAAAAAAAAAAAAAAAAAAAAAAAAAAAAAAAAAAAAAAAAAAAAAAAAAAAAAAAAAAAAAAAAAAAAAAAAAAAAAAAAAAAAAAAAAAAAAAAAAAAAAAAAAAAAAAAAAAAAAAAAAAAAAAAAAAAAAAAAAAAAAAAAAAAAAAAAAAAAAAAAAAAAAAAAAAAAAAAAAAAAAAAAAAAAAAAAAAAAAAAAAAAAAAAAAAAAAAAAAAAAAAAAAAAAAAAAAAAAAAAAAAAAAAAAAAAAAAAAAAAAAAAAAAAAAAAAAAAAAAAAAAAAAAAAAAAAAAAAAAAAAAAAAAAAAAAAAAAAAAAAAAAAAAAAAAAAAAAAAAAAAAAAAAAAAAAAAAAAAAAAAAAAAAAAAAAAAAAAAAAAAAAAAAAAAAAAAAAAAAAAAAAAAAAAAAAAAAAAAAAAAAAAAAAAAAAAAAAAAAAAAAAAAAAAAAAAAAAAAAAAAAAAAAAAAAAAAAAAAAAAAAAAAAAAAAAAAAAAAAAAAAAAAAAAAAAAAAAAAAAAAAAAAAAAAAAAAAAAAAAAAAAAAAAAAAAAAAAAAAAAAAAAAAAAAAAAAAAAAAAAAAAAAAAAAAAAAAAAAAAAAAAAAAAAAAAAAAAAAAAAAAAAAAAAAAAAAAAAAAAAAAAAAAAAAAAAAAAAAAAAAAAAAAAAAAAAAAAAAAAAAAAAAAAAAAAAAAAAAAAAAAAAAAAAAAAAAAAAAAAAAAAAAAAAAAAAAAAAAAAAAAAAAAAAAAAAAAAAAAAAAAAAAAAAAAAAAAAAAAAAAAAAAAAAAAAAAAAAAAAAAAAAAAAAAAAAAAAAAAAAAAAAAAAAAAAAAAAAAAAAAAAAAAAAAAAAAAAAAAAAAAAAAAAAAAAAAAAAAAAAAAAAAAAAAAAAAAAAAAAAAAAAAAAAAAAAAAAAAAAAAAAAAAAAAAAAAAAAAAAAAAAAAAAAAAAAAAAAAAAAAAAAAAAAAAAAAAAAAAAAAAAAAAAAAAAAAAAAAAAAAAAAAAAAAAAAAAAAAAAAAAAAAAAAAAAAAAAAAAAAAAAAAAAAAAAAAAAAAAAAAAAAAAAAAAAAAAAAAAAAAAAAAAAAAAAAAAAAAAAAAAAAAAAAAAAAAAAAAAAAAAAAAAAAAAAAAAAAAAAAAAAAAAAAAAAAAAAAAAAAAAAAAAAAAAAAAAAAAAAAAAAAAAAAAAAAAAAAAAAAAAAAAAAAAAAAAAAAAAAAAAAAAAAAAAAAAAAAAAAAAAAAAAAAAAAAAAAAAAAAAAAAAAAAAAAAAAAAAAAAAAAAAAAAAAAAAAAAAAAAAAAAAAAAAAAAAAAAAAAAAAAAAAAAAAAAAAAEb0c2sa9Wsfc4zXERMz5ERz1V6aeudeAOY+fi89ynA0VXcZmuXWLdH0prxdrX1U+E1mXUM35buTbJZqjG7QcaZ0mLFFVXs3VljZ3AwI1xcXDp+9etf6yvMHJ4+POmFh3v+7W0/0h37WOuDep7Ue2FOY75T2wNmqacvnE4+mI8muq3Ma+jSeZ8PF/Kry63EfoezdeJq6pvafgw2Jyl2bh8cxSf3dbf6YlmcPk5tG/DL3j97Sv8AqmF/71Paj2wb1Paj2wzje+VliKZjwOw03Y6ZnFx7ni8bTH+YHT/1sevoWk8rtlx+2n+Fi+BdRyT2nP7GP4mF42k96ntR7YN6OuPbDPNn5V1uqYi/shVap04zGJ+rWOb6/Y+rgvlS7MV7v6bll7Ca/T3Z1097705UbMvwx6x21tX+tYfC/JnaVP2Fp7LVt/SZXkKtwPyjeS7HV0W6s5xGGv1x/u7mHr078O35Pt9sjnlG9lue4GuerEYiin1RFyuOLL4G08pjzphY+Feeqt6zPdrqxOPs3N4Ea4uDi0jrtS0R36aOxjw2cVZvxNVm/YvxH/T3aJ/y1PJvRzzrT/S097JRMTwY6Y0chGuvNxS9eAAAAAAAAAAAAAAAAAAAAAAAAAAAAAAAAAAAAAAAAAAAAAAAAAAAAAAAAAAAAAAAAAAAAAAAAAAAAAAAAAAAAAAAAAAAAAI5gSiZiOfh6ZeO/iLWHt1Xr923Ys0RrVfvV0REf0qqqo0Vdt38oLZLZSb2Cy25/LecU06W7ViZm3rHav0Vac8dCwzeewMnT4THxK0j1zvn1RHGZ7IX2UyOPm7+RgUtefVG6PXM8IjtWnXcot0zXXVTRRTGtVyuqnSPTVVM8IdS2o5VNh9krdVecZ3Z3qPpW8DXTXPHXSmabVfCWXtruXDbzayK7NWPryXA3J/WYDBzOlUTzUzXHNwl0Guuq5cqu11XLlyuda67tyqdfVXP1o12hy5rGtcnha/bxd0eykb59s1SPkORFp0tm8TT7GHvn23ndHsiWhdpvlUxFVVnZTI4xlmqNIx+JrqiaefSqLczxnRWefctnKNntVdNWf3cBg6/pYKzT9emtceh0Xn59PVHuGg5vlBn81r8JjXiJ+bSfIr2ebpOnbMt7ymwchldPIwaTMfOvHl27fO1jXsiHnxmPxuY3PC47G43E3O1OKu/5d54PVr/AOpx/wAwNfmZmdZnWeueLPxERGkRpHVHA19FEfVRH4HH/wCP9AePUeufbPvNPTPeq96QD2+2fecf5s/XTAAa/wA236rdP2T0I6YnfxFExOseCxFcc3opqSA+7k+3e2Oz+7GTbRYzA001b27VXXVzc30pWJs/8pvbPKqabebZdZ2hpmdK71yuaZjT9uN2efRTyGWyu1s5lf8ABxsSunR5WtfdtrX8GKzOyspmv8bBw7evydLe9XS34tb7M/KO2DzuuxhMffv5VmFyPKtVW53Ymeembs1cFnYDNcvzO1F7L8dhMdbqp3o/Rb9ueeOG9FNfkz9b8+54xpMRp/NiP80Pq5BtZtJstdi7s/nWMyyrXWqKblc6/wA2YqnhGrechy4xqTFc1h1xI+lTzbd0+bPfVpGe5E4N9bZXEnDn6N/Or3xHlR3Wb6iqJ4dPVw+7VLN+xPyn7tmm3gdtcB+rop3KM0w01TVXx57tEcKfrXps3tls9tVhreJyXMsPifCUb36P4SnfjpmKrc1ax/okzZ+2spn4+JxI8rppbzbx92ePbGsI32hsbN5CfjsOYr0Xr51J+9HDsnSX3BEVRPDp6Y96WdYMAAAAAAAAAAAAAAAAAAAAAAAAAAAAAAAAAAAAAAAAAAAAAAAAAAAAAAAAAAAAAAAAAAAAAAAAAAAAAAAAAAAAAAEPSzTN8vybBXsxzLF2cHgrFO9cxF6qIjhE+RGv7XCVNrRWJm0xERGszO6IjrlVWs2mIrEzM7oiN8zPqe5NXREa1c+7rHo46yr7lA5aNktg6arF/ExmOazE02cHgpidJiNKaMXNFX6uNVR8p/yisZm0YjJdiKruAwET4LEZtOsVzMTMTVhuP+74ypC9fv4m9cxOIv3MRib0717E3apmapn6Vdze/a1lF22eWVcOZwsjpe3CcWd9I/cj50+ufN7Um7H5H2xIjFzutK8Ywo3Xn9+fmx6o39jum23K/tntrfvU4rMLmW5bXVpTleDrndmOjfqj9rd0dIiIiJimJ0mdZiZ15+neqEojzGZxczecTGva9p6bTr3dER6o0hLGXy2Fl6Rh4NK0rHRWNO/rn1zrKNEgtlyAAAAAAAAAAAAAAAAiOHNw9Ufi97J89zfZ/F0Y3JcxxOW4mire8JZuVcdJiZpmnXTTT73pCut7UmLVmYmN8TE6THZMb4U2rW8TW0RMTxiY1ie2J3NDcnvymKq7uGynbjC02qKoi1h81w01TNU6xHhMXGulPOv3Lc2y/N8JRjctxljG4WuN6L1i5TMRrEVRFW7PCrSfsfn3p7J5/wCOjo9jtWw/KVtRsFjbeIyjF13sJE/rsqxFdW5McIqmYmeFemqR9j8scXA0w85ri04fCR/iVj1/TiPe7UdbX5IYWPriZPTDvx+D/Z2n1fQn+XsbmiY0j080pdB5OOVzZ7lAwtmixepwedeD1v5ZeqiJmYjy6sPFX0qHfIn7OePVHT9SZMtmsLM4cYuDaL0twmP6T1T1xO+EQZnLYuWxJwsas0tHGJ/rHXHVMbnIBdLUAAAAAAAAAAAAAAAAAAAAAAAAAAAAAAAAAAAAAAAAAAAAAAAAAAAAAAAAAAAAAAAAAAAAAAAAAAAAAAAARM6ejTjMkzpE+iNZ97pPKdynZPydZTViMTVTic2xFOmWZZRVG9VM6xTiK6ei1E6LbM5nDy2HbFxbRWlY1mZ/93zPREb5lc5fL4mYxK4WFWbXtOkRH/u6I6Z4RD6O2+3WRbC5RczPOr8U+T/s2DoqjeuT0eCp59NWSOUblU2h5RMwqu4u9Xg8ot+Rgsps1VRTMa6xcxdMfSv6Pi7W7X55tnmt/Nc7xdeIuXLm/aw0VTuUazrTTh6Oajg+L9fHr/1QNt7lLi7RtOFha4eBE/J4Wvp0306OqvCOnWU6bC5OYWz6xiYml8eY+VxrTXopr09duM9GhpzR0U8KY+zSEg0luYAAAAAAAAAAAAAAAAAAAAAAjT+PuSA8uCx+NyzF2sdl2Lv4HG2Kt61i8NVMVRpMTuax+xwaV5I+X/CZzVgNmdraowubTR4LDZtVMblcxGlFq9VP/HmdGZSKpomJpqqpmmd+mqmZ1iY4xctzHNc1iGc2VtjMbNxPLwZ82Zjy8Ofk2js6J6rRvhhdqbIwNo4fkYsaWjXyLx8qs9vTHXWd0v0Opqifr010ievXSdY54lLNXI1y+X8HXhNldtb/AIXCcLGWZxXPGOim3ja5+lVxaRsXrd+3bvWblN21dp37V2iY0qiqNaaqZj0OgtlbWwNpYXwmDO+N16T8qk9Ux1dUxun8EBbU2Vj7Oxfg8aN076Xj5N464nr64nfDygM0wwAAAAAAAAAAAAAAAAAAAAAAAAAAAAAAAAAAAAAAAAAAAAAAAAAAAAAAAAAAAAAAAAAAAAAAAAAAAAiZ0JnR8DbXa/LNisgxuf5rcppsYWnS3a1jWqqYmLdFFOvlxMvli4tMKlsS8xWtYm1pnhERvmX1wsK2LeuHSJta0xFYjjMzwh8jlO5S8q5OsmqxeI0xOaYmmacry6mY1qnSqmL9Uf8ALirT2MdbS7TZxtZm+JzrOsVViMbia976U6URVMzTaw1P/Dp04Pb2420zXbrPcRneZ11RFdX+xYbenS3T+xFEa+TrTp7XX4c9codvX2lizWszGBSfMrw8r7dvXPRHzY9eqf8AYGw6bNwvKtETj3jz7cfJj6FfVHTPzp9WgkGotsAAAAAAAAAAAAAAAAAAAAAAAAAAAARPpjWNddI1+vWnqq9y9uQnloqyu7hdjdqcRXcwmJu+CyjMrtX0Zq0powl2qqeH1qKRzdNUaTrE0zxjTjFdqY+jXr0sps3aONs/Hrj4M743WrPC9emtu3ononfDGbR2dg5/Btg40bp+TbprbotH+8dMbpfodTXFXNMTw1iaeadY1jdnpjRzUFyB8sN3NIs7F7S36asZhrW5lOY3a48qIjdowt2qZ8u/pEcV90zr9fTGvs0dH7M2lhbQwK4+FO6d1qzxraONZ7Ovpje522ls7FyGPbBxY3xvraOFq9Fo7eronc5AMqxYAAAAAAAAAAAAAAAAAAAAAAAAAAAAAAAAAAAAAAAAAAAAAAAAAAAAAAAAAAAAAAAAAAAAAAAAhLjVMR6Ojj6eGoPBjcZYwOGv4vFXaLGHw1qb167cqiIiKImaomqZ4TpEsa8r/KXitv8AaG94C/X/ANnsuuTYyzCxrpM25mm5dvU6/rNZidFj/KO5Tp47C5Pfnj5edXrNfRMeRaprpnr14M9afZwjT18fr0Qryw258Neclgz5lJ+NmJ+VePm9lenrt2Jl5I7E+Bp+m40efePiomPk0n53bbo6q9pp6/45vqSCMUlgAAAAAAAAAAAAAAAAAAAAAAAAAAAAACEgOeGxOJweIs4rB368LisPd8LhsRRM+TNE6xVOnPHBsLkX5T8Nt5kFrDYuqmztDldrwOOsVVxrXFEU0U42mNeljmeL7uxW1uP2K2hwOfYKurTD3Y/TcPTVP6ymatJszGvGNGz8n9s22ZmItMzOFfSuLX1fTj7VfxjWOprO3tj12ll5rGkYtNZw7ev6M+q34TpPW3nTOseieb3yl8jZraHAbT5Pgc6y65FzDY2zFyd2qPJnco37GsT9KK5mPU+s6Nw71xKxesxNbRExMcJieEw54vS1LTW0TExMxMTxiY4wkB9FAAAAAAAAAAAAAAAAAAAAAAAAAAAAAAAAAAAAAAAAAAAAAAAAAAAAAAAAAAAAAAAAAAAAAACJdS5SttsPsJstmGdV0UX8XTZm3l2Err/3lVcU6RHHjpEzP9V2uudPVG9Pq03vsZE5fuUCna7aX+SsBfqryfIrng7Wk8Jro8m9ExE8eNP2NY5RbVjZ2Utes/GX8zDj7U8bafZjf26a8Wzcn9l/rDN1paPi6efiT9mOFfvTu7NepWePx2JzTGYrH4y7VexONvzirldczrHhqqqvAazzxGujwo656+Pt6Eub5mZmZnfM75nrl0TERERERpEbojqgAePQAAAAAAAAAAAAAAAAAAAAAAAAAAAAAAABGuk6x0dHq0+6UgLv+TZyhVZVmdWxOY3tMtzCvfynwlXNXVVE3KZmZ4Uzuw0/TPRrrpw119ETw9HF+euExWJwGLw+Mwdyqzi8Ldi9hr1Mzw3JiqqY06dIbZ5K9tbO3Gx+WZxTVEYmij9DxduZ462It0V3a6deGsxMpo5F7W+Fw5yWJPnYceVh69NOmv3Jnd6pjqQ5yy2V8FiRnMOPNxJ8nE06L9FvvxG/1xPW7mISlBGQAAAAAAAAAAAAAAAAAAAAAAAAAAAAAAAAAAAAAAAAAAAAAAAAAAAAAAAACAShwuXaLVFd2uqmi3bjW5drqiIjdjWqqqaujRWG23ygNidkq6sJh79ed5hNO7b/AJO0miKuOlF+5TPk8Vjm89gZSnl4+JWleu06a9kcZ9i9yuSx83fyMDDte32Y4ds8I9q0d7WNaY3vqmPxejjc8yjL5qpx2bZfgqqfpU4nE2Y09ExVcjiybtR8oXb/AGhpuWcNctbPWN7S1dy2ure01nSa5mdd7TRXmYZxm2bVVV5rmmMzOuvjXViLtfHr10lH2c5c4FJ0y+FbE+1afIr3b7fg3/KciMe8a5jFrh/ZrHl2791fxbTzDlZ2By6qqi9tBgr1VMazOGu0z6ommri+Jf8AlA8m1iaYqzDFVb3N4O1V0delzgxzFq1T9G1u9Xl1fjLlzc0aev3w13E5c5yfk4eFX3rf7w2DD5E5OPlYmLb3a/0iWycJy9cnGLmIozK9b9N63Me3W47DgOUfYrMtz9G2kyuiuuN6mi/iLUT9Xl1xxYVmInnp19fuhxi3aiYqi1MVRxiqLtfqnhKvC5dZuvy8LCt2Tav5qcTkRlbfIxcWvbFbfk/QvDY3C4yjwmDxNjGUdrD3bcxx6dYq5nm3o10nhPV/8MF5Ttrtbkdy3XlW0mZYOm3P+4t3KtJ0/Yq1/ZWjst8p7aLLfAYfaTLrGOwNuv8AXYqzNXhNP2t2I+lU2jJctspizFcet8Gev5dO+N8R2w1jOci81hazgWpix1fIv3TumeyWpR0/Y7lQ2Q20w9m5lOZ2rOJu82W4uumLno/V1VceLtszrGkcKumPXGs+xv2BmMPHpGJhWres8JrMTH4f/rRMbL4mBeaYtbUtHGLRMT+LpXK7tZTslsTmuPt4iMPjcTZnDZfVvcZmummKotddWn+Zieu5VeuXL1es3MRc/Sbsz13Jma6qp69ZXH8pja+M42pw2zOGvxewGTWYxczbq4b9VNMXKJ0564009Sm446z2p3vbxQLyt2j+l52cOs+ZgfFx1Tb589+7shOnJTZ/6LkoxLR5+N589cV+ZHdv7ZSA0lugAAAAAAAAAAAAAAAAAAAAAAAAAAAAAAAAAAACJj+Pv+xbvycNs7mR7Xzs9euTOC2jjwOHt1Twom3Os10x0TO7PtVG82X47FZXjcJmOCuVWsXgr8XbF2mebdqiq5pPRwZHZ2ctkszh5iuvmWiZiOmvC0e2usdrH7Qydc5lsTAtp59ZiJnotxrPstpPZq/QiieEx0Uzux6ohydd2F2ksbU7L5PnVq5FycRhotXqqZ/at00U3Z+vWJ9rsTqHBxa4tK4lJ1rasWifVMaw5kxcO2Fe1LRpaszWY9cTpIA+z5AAAAAAAAAAAAAAAAAAAAAAAAAAAAAAAAAAAAAAAAAAAAAAAAAAAAAImYj1c/vAmdI15o63W9tNu9nthstrzDPcVTb8new+Coqjfr05vA0c/PD5HKlypZVyc5X4S7NOKzvF0TGWZbTVGs660xir1PRYifuZB2o2qzrbDNL+a55i68Vfu3N+3amqd2jenWKcNRzU06S0XlBymw9nRODg6Xx5jh83D14Tbrnqr7Z3N32BybvtCYxsXWmBE8fnYmnGK9UddvZG93DlD5b9qdt79yzhMTeyTJYqmLGHwlUxVVEzwoxmnPOiuI8mappjdm5O9cmJ55nnqne6dT088zzz70oNzWcxs3iTi497XtPTM8PVEcIj1Qm3K5TByuHGHgUilY6Ijj65njM+uUaQkFmvAAAABHNxjh7PxSA8mExWJy/FUY7A37mExtudacXZrqirhzaaLy5PflJY7L7E5btjZ/S7dixu4DH2fpTMRO5OLnpjX71Eo69Ono4e5ldn7UzOQv5eXvNdeNeNbfvV4T28WLz+zMvn6eRj0i2nC3C1ey3GOzg93PcxuZvnOb5lcnWcbmVWIo+q5XM0xr1aTD0hLGWtNrTaeMzMz2zOrJVrFYiscIiIjsiNIAFKoAAAAAAAAAAAAAAAAAAAAAAAAAAAAAAAAAAAAR+Mbve0pSgGkfks7U3L+WZtsldqt02soq/ScDTM8Z8NVHhNNeeOb2L+pnWmNefTj7I4MU8iuezkXKLkF2u7NrB4uubWMne4Tv8Ak0xV187atuYmN6J1ivy6Z9FWkxPsT9yOzs5jIRh2nW2DacP7vyq+yInyY7EDcrsnGXz03iN2NWMT73C3tmY8qe1zAb00gAAAAAAAAAAAAAAAAAAAAAAAAAAAAAAAAAAAAAAAAAAAAAAAAAAABDre3m2mW7C7O4vP8yrpiiz+qwtqZjWquuK6bVumn9qneiHYL92i1brruVblu3RNy7VM80U01VV169HCJ9jHPLjyg3dttrL+FsXKpyXIa5wuBopq8m7rVM1YiqiJ0qriqZ4tX5Q7YjZuWm9dJxb+bhR9rTfafVWN/rnSOls2wNkTtLMxS2sYdPOxJ+z0Vj12nd6o1nodQ2r2nzPa/PcdnuZ3blWIxl7ftWq6p/VxM602LMfsW92Y4el8iOY065165n8Uuc8TEtiWm95m1rTMzM8Zmd8y6Gw8OuHWKUiIrWIiIjhERwgAfN9AAAAAAAAAAAAAAAAAAAAAAAAAAAAAAAAAAAAAAAAAAAAAAAAAAAAHPD3rmGv4bEWapou2cbTcpqpmeai5RNcRP1N6bKZpZznIMozKzwov4GmnSZjnpt0RXOsfzolgfpiO3ci1H13JimnT066Nu8kmWYrKtgNncFjKa6L9FjwtUXJnXS5O9Rrr0aTCUOQmJaMfHpEebNK2meqYtMR3xM9yMuXOHWcDAvM+dF7ViOuJrEz3TEd7ugjVE1adNMfXP4JoQ45Dhv8A86jvJirXppn6peDkOO91xPqpn74TveifXHveiRGsdcJAAAAAAAAAAAAAAAAAAAAAAAAAAAAAAAAAAAAAAAAAAAAARM6RM+hLjXPNHRM6VeuJ1kFXcv229zZPY2/hMDeinNc4/wBnsUxMa7lU1U3piNeqfsZB9GtU8d7Wqe3xq1mefylmfKC2qq2i2/xOBpmf0fZmP0XDzTVwq8J9OZjXj5UyrOI0/j63OvKjaE5zPX0nzML4unV5s+dPttr7Ih0JyZ2fGTyNNY8/F+Mv96PNj2V09sykBqLbAAAAAAAAAAAAAAAAAAAAAAAAAAAAAAAAAAAAAAAAAAAAAAAAAAAABCUTx4eje7vlfgDtHJpszO1u22RZLXRNWFu4jw+MuRE+T+j1RXE1cP5rcWGs02bVq1Rwow9qMPRHotU00xOn1QoL5Leym5g812uxFimqnH1fo+W3p04eDnS7FMTDQMcKNemY1n2cdE9cjch+j5L4a0edjz5f3I3UjsnfaP3kFcsM/wDpGc+BrPm4MeT9+d9+7dX7r4+1mfRs7kOYZvNMVThqNyimdOerWLdfp0qmPYz3idvtrsXeuX72bVb9yrXS3MxGlWs0UxTrw4aLL5c85/R8py/JYqmJzSvfqiP/ACuMb3H61KR6uEaezg1LlftTF/S4wMLEtWuHWPKitprre2+ddOOlfJ06tZ62R5O5HD/R/hb0rM3tOk2iJ82N27Xhv1/B9qjbLaaje3c2v+VOs63Kvs1l5rO3212H42c3qjWdfLmZ/F8DSOo0jqaLGezNeGNix2Xt+bapyuDPHDp7tfydvw3Kzt3h5pic0w123E6zRcs0zP1RVMcH3Mv5c86w3/7hl1GYRrzWt2PVwVppBp6Z9rIYO3doYXycxi/et5cd1tYWmJsrKYnysGnsjyZ766LwyvlyyHEzEZhgb2WU/tVVTE/dDuOU7Z7N51p/J2bWL1UxrFNyuI9XlacWXdJ6Ypq/pR70xVVT9Gu9a6f1FyqP8stjyvLXO4W7GrTFjs8i3fXzf5WFx+TOWvvw5thz2+VHdO/+Zrum5FURNM01xPTbnX7YctY/0ZkyTlA2qyGbVGDzOqvCUT5eGv8AHe004b9U8J0WRs9y4ZZiv1Wf4SrLKojdpxFE673NGu70N6yHK7JZnSuJM4Nuq/yfZeN3veS1bN8nszg6zSIxK/Z+V7s7+7Vag9HLM4y7N8PbxWXYuzirNynep3K6df61vXWng92J5vun8YbrS9bxFqzExO+JidYnsmGs2rNZ0tExMcYndKQFakAAAAAAAAAAAAAAAAAAAAAAAAAAAAAAAAAAAAAAehnWKjA5XmeLqqmijD5dXd3o66LVyadPTro990jlgzG5lnJ7tBirVzwdXg/A70f+bM0zHP1StM3jfA4GJifQpa3dWZXeUwvhsbDw4+dete+Yhi7NMwvZtmWPzLEVTVfxmMq36p/m3at3X1aPXRpp665r78zMylypa02mZnfMzrM9czxdR1rFYiI3REaRHqjgAKVQAAAAAAAAAAAAAAAAAAAAAAAAAAAAAAAAAAAAAAAAAAAAAAAAAAAA8mEwmJx+Jw2CwdHhcVisRFqzb69+qKbkezV4pWZ8n3ZO5tHt7h8bVapuYPZuP0rFxc5p35iKN3tVb0wvsjlbZvMYeBXjiXiu7oj50+yus+xZZ3NVyuBiY9uFKTbf0z0R7baR7Wotg9nMLststk2S4Wz4CixhIv3aI7V2iiu969+Z9jsNXDT6+P2/YiiNI16P2fq0jSHrZlireCwWLxd2qKLdnDzVMzPTFMzTHPw46OoqUpgYUVrpFaViI6IitY/KHMeJe2NiTa2+17TM9Os2nVQPK7m9WY7X4rCxXv2cspim1P1x5cU8evV0qHsZjjLuY4/GY2/Ot2/iqomZno36tzj08NHghzHn8zOazGLjT8+9rR2TPmx7I0hN2UwYwMHDwo+bWInt03/jqALBdgAAAGkI0+qfrj3pAe5lOd5vkWI/Ssox97B39dZq35mOGmtMW9dI4LZ2S5asLeizg9pqJwt3TcjH24nyp4aTXTE+TGqmkTH1dXGPsjWeEs5s3bOa2fbXBvPk9OHbfSfu9E+uNJYvO7NwM3GmJXf0XjdaPb09k6w1vg8ZhsbYt4nC3reIsXI3qLlqqJ544b8xPCdHn1Zk2U26zzZS9bjCXqsRgd79ZgLtc6Trz1azPDgvbZHbrJ9rcJ4bCXqLOKoncv4K7VETrp/waZq1ro9KadjcpMvtHSk/F42m+kzut1zSens4x1I02lsXGyeto8/D+lHR+9HR28HZhGsezn/1S25rwAAAAAAAAAAAAAAAAAAAAAAAAAAAAAAAAAAAAq35Rtyu1yTbQ10c/wClUR7b0xK0lY/KGw8Ynkq2htTFWn6RTX5P827r7GF23rOQzOnH4DF/0SzOxpiM9lteHw+F/rhj2eeP/Tj/ACCJ56f6EU+yhLmF0uAAAAAAAAAAAAAAAAAAAAAAAAAAAAAAAAAAAAAAAAAAAAAAAAAAAAAgDWInWeaOHejSPt0a0+TlsnOQ7E28zxVnczLOL01XapjnpiqmbM/VpM+xmjYbZbEbZbT5TkFqiubWNxURjL1EfQi3VFW/XMc1OkN0ZXgLWWYDBZfh6d2zgMLThKYiI/4Vq3Tv/XOmvrShyH2fN8a+btHm0jyKT13tvtMfu1096YRny12hFMKmUrO+8+XePs13Vie22u71RL2/o08OiPwdF5Xc3/k3ZLF2Lc6X8wnwdqdfTE1aer73eap4R6Z09vBSXLrmfh8yyvLLdcxGBjwt2jr8JGsa+pIPKTNfo2z8a0cbV+Dr2382e6NZ9iN9i5f4fN4cTwrPlz93f/XRV0fs9e7rP26z9/sckRzzw6fx5kuc0yAAAAAAAAAAEw82Bx2KyzGWcfgr1zD4qxVvUXrdU/s8dyaY5497wiqtprMWidJidYmOMTHCYeTETGk74ndMT0wvrk95ULG0k05Xm/g8FnFFH6ure8m5ERprvTP++9HpWFE6/X1e1kS3crs10XbNyuzctVb9u7bmdaZidYrpmOedV08mvKjOa1WMg2gmm3mFNPg8Hi9eFzThT4SZ/wCMmLk5yo+G8nK5y3xnCmJPC/VW3VbqnhbtRxtnYXweuPl48zjakfN9deuvXHR2LUHGJ6+fp/CHJJ7RwAAAAAAAAAAAAAAAAAAAAAAAAAAAAAAHHe1jWmNdOfWffAOQ6/nW3WyWz9c0ZxtFl2XXIjXwN69TrwjXdpiI4yr7PPlL7B5TVVTh8NmGbzFW7FWCinThw3tZjmYrM7VyeV/xsbDppxibRM90az+DKZbZebzP+Dg4ltemKzEd86R+K4JqiOefsn3Op8pmW05xsTn+CjWuqcJOIiimmf8Ag01V683VE+xT2YfKuquTP8k5DctUfsfpcfZPDnfAx3ynNtcXbxFi1l2U0Ya/ZmzVFdvjpdoqoqn692prGc5VbMvh3wvhLWi1bV82lpjfEx06NmynJfaVMSmJ8HWs1tW3nXrE7piejVTUTrrPPpemiJ/9OqqlyTcqiu5crppiiLl6b27Ec03apqq09GsoQGnYAAAAAAAAAAAAAAAAAAAAAAAAAAAAAAAAAAAAAAAAAAAAAAAAAAAAcZ0nXWJ06dPTwp0jp8rRPojnnmWZyI8l97bnPqMxx9i5Rs7lFcXrmJqpndu1RXH+yU6/SmJ/yr3JZPEzmNTAwo1tedPVEdMz1REb5WeczeHlMG+PizpWkaz1zPREdczO6IWv8nLk5r2fym/tbmtmac2zq34OzZrp4U0UVU1W7tETzVTEx9q7KY0iPq01/F48NYtYezZsWaItWbFvwVm3THNFFMUxTERzRpDzOmNm5DDyOXpl8PhWN89NrTvtafXM73Nu0c9fPZi+PicbTujorWN1ax6ojc419HRx1+1m/lXxM4jbvNuOtu1h6bdEf0aYpmY9jSFX8e1mjlLiaNuM7iqJpndidJ9OmktM5cTMZPDjrxo19lLtg5LxH6Tef8uf9VXWY5kkcwhJJwAAAAAAAAAAABJbuV2K6Ltq5XauW6t+1etzxpmnjFdEx+1qGj14vbkv5RqM/s0ZJm1yKM5w1G7ZvVTwuxGlNMRM89/RY1M6/wAeyGR8HjMTgMVYxeDuzZxOGueFsXImeGnlTzNH8n22WH2tye3d3qaMywtPgsdhpmNY3d2mL8xpxpnRNnJXb85uv6LmJ+NrHmWn9pWOieu9enrjfx1Rlt7ZP6PPw+DHxdp86I+Zaf7Z/Cd3U7WIidf4+1KRmmgAAAAAAAAAAAAAAAAAAAAAAAAONVWn8ffPRAJevjswweXYa5i8dibOEwtqneuYi/XERGnTMVRxV7ykct+zWwcXcFaqjOc9jyYy7C10+RMxwuXa9PoxVMcPQzLtrym7WbdYmbmbZjctYSmr9RgsHVNNMRzxReopny2l7X5U5XIa4dPjcWPmVnzaz9u3R2RrPXo3LZPJjM5/TEv8VhT8+0b7R9ivT2zpHVq0Btl8pTZDIpuYfJLN7aDF/wC7t4jCzG7TPNFdyJp40RV9yktqeXDlB2ppu2MRmNvLcHVVpapyvyatJnhvzRz1aOgREU67sRRr9Lc/HrNER7Q5SZ7O6xbEmlJ+Zh+bXT1z8q3tlLGQ5OZHJ6TXDi94+fiedOvqj5NfZDyYrEYjHV7+PxF/MbkcYuY6uqZ69dZl46fI+hEUf0fuSNYmdZ1nj19Pe2WI0jSOHV0dxM1Tz1TPrR9qR49AAAAAAAAAAAAAAAAAAAAAAAAAAAAAAAAAAAAAAAAAAAAAAAAAAAAEejTXXmj+OY9nrn6+mel3zkx5Jc65RsbvUxdy/IbNX+25ndt1RrpOs4azExxqmNeMLrK5XFzWJXCwaze9uER/WeqI6ZndC1zOawsth2xca0VpXjM/0jrmeiI3y9Dk35O815Q87t4DB0V28ts172aZhNM6RTExvWrdXTc0bP2c2fy7ZrKMFk2WWKLGEwVmLcRRTHlTFMRVer0jyrkzHO8OyuyeT7H5RhsoybC28PYw9vcruRRTvVzEaVV3a9NauL7UR/HudAcn9g02Xh620tjXiPLt0RH0K+qOmfnTvQLt/bt9p4mlda4NJ8yvTM/Tt656I+bG4hINuam41dGna+6dWe+WPL6sLtlicbOu5j8PFNP9SmNdOvi0LPGJj0K05atnK8yyXD5xYp3ruS171dFFPGqK9KeOkcY1+9p3KvJzmdn38mNbYcxixHqrrFu6szPsbHsDMxg5uvlbovE0n26afjER7VGx1dXARHCfr4z/AFuMwlz6l0AAAAAAAAAAAAABExq+1sjtPitlc6w+ZWZqmxNyKMfYiZ8uJq0iNOnT8Hxkc3H1e3SOD7YONfBxK4uHM1tSYtWY6Jj/AN4dMbnyxcOuLSaXjWtomJjriWtMux+GzLB4fG4W5TcsYm1F2mqme1TTPg9Yj6UazHqe2pvkU2triq7svjb0eCp/WZZNc8ZmdJrp1no4LipnWPTHCZ9UaulNkbRrtDLUx67pmNLx9G8fKjs6Y64mELbQydspj2wp4RvrPXWeE/7T63IBmWNAAAAAAAAAAAAAAAAAAAAEDwYvF2MHYvYnE3aLGHw9ub1+9cqiIpiimaqqpqmeFWkS8mYiNZexGu6HLEYmzhrVy/fu27NmzTv3b1yqIiIpiZmZqmeE6Qztyu/KEuV1YrZzYe7FNOk2MbnmnPExu3LVjs1fS4+l1vll5bMVthfxOz+zt65hdmrF3cuYi3VMVX5t1VRvxVE60UROvBUM6zPp/jjV1yhzlDystiTbLZK2leF8WONuuKT0V+1xno0jfMv8n+StaRXMZ2utuNMKeFeqb9dvs8I6dZ3Ryu3rt+7Xfv3bt+9XO9XfvVzNU706zvXJnWY1cYEorSgAAAAAAAAAAAAAAAAAAAAAjWASI1g1gEiNYNYBIjWDWASI1g1gEiNYNYBIjWDWASI1g1BIAAj+OaQEh6p9ko49U+wEiOPVPsOPVPsBIj1T7E8ezV7AA49mr2HHs1ewAOPZq9hpPZq9kgBpV2Ku7JpV2Ku7IAaVdivuz7jSY56ao+uJ9wAjWOm5aieiJrj7I6Xt5flOaZpft4XL8tx+JvXeFvdw1zd4zpxuRTpEKq1m06ViZmeiI1lTa0VjWZiI653Q9Tn5on2T+Dy4bDYjGX7WGwlm7icRfr8Hat4eiauNU6U017keRGswtjZD5N22Gd3LV3aKujZ3AzHhN+3VE1THPFFVv9mZjr61/wCxXJTshsPRTXlOWWq8wqt7l/H4imJmrm3q6Iq/3c/U3TZnJPOZyYtiR8Bh9M3jz5j7NOPvaR2tN2lyqyeUia4c/DYnRFJ82J+1fh7us9im+TH5OGMxtyznG3tFWFwlHl2sgoq41cN+i9Xcj6Mc3D0tG5dlmByrCWMDl+Fs4TC4ejwdqzZoiI8mndibkRHl18Od7UUxHXPHp/8At6ockz7L2Pltm08jArvn5V533t2z1dURpEdSHdp7XzG0b+VjW3R8mkbqV7I6+uZ1metCQZthQAB6+LwtnF4e9hr9FNyzftzauUVRH7cTE1aaPYRMfx+DyYiY0nhO6XsTpOsM07fbF4nZDNa6IpqryzGVzdwOJiOHlTM10XKv2NNXV4n+PbzT08Wrs5yTLc+wVzL80wtGJw13nomI1jqrt1fsqP2x5Jc4yS5fxmU0fyjlVM73D6VEazpTTbj6enMg/b/JfFy17Y2VrN8GZmfJrvth9Mxp016pjhG6eGsyhsnbmHj1jCx5iuJG7yp3Rfq39FuuOno6nQguW7lmqqi9buYeqmdJpxFMx0zwiKoRrPRMT9Wv4I+4NvSHHs1d2Tj1T7HgBr6J9hr6JADWDWAA1g1AAAAAAB58ux+JyvHYXMMJcm3icJdiu3XE9ETE3NfVq1Ds3nWHz/JsBmuGqiq3iLUU1fXTERc/xRLK0/fGntW3yH7SVxVi9nL9cRap/W5fTM+uuKY6Ugcjto/o+anL2nzMbdHqxI+T3xrE9c+S1HlHkvhsD4asedhcfXSePdOk9640uNM8NOrhPq01ck5otAAAAAAAAAAAAAAAAAAARM6R93uBxrrimKpmdIpjWZ6ojXWv1Mx8vvK//LN3EbF7PYiqMtw9e7m+Ls1/TmmrhaouUz9GKod/+UBymV7I5HGQ5TjIs5/ntE27d2zVGtqmY/WeGpif1cVUzVHHrZPmZrqmqqZmZq365meeapnwlVU9Osom5X7emmuRwJ0mY+OtHRE8MOO2N9vVMR0zpKvJLYcW0z2PGsRPxNZ6Zj9pPZO6vriZ6IRzz0cOaI9muiQRAlsAAAAAAAAAAAAAAAAAAR7P46I9JPNP1O88i+y2X7YcoOBybNI3sHh8JOaV2+HleA8qLPHr0+1dZXL2zONh4NNPKxLxSuvDWZ6VtmcxXL4N8a+vk4dZvOnHSI6HV8Hs5n2PiJwmS5tdpqp3qbn6Jc0n00VbnlQ9n/sXtTPH+Qc0/utz8jdmEwuEwli1hsLZwuGw9ijwdmxTbpjdijWnd4Veh5tKOux3Y/MlevIPD0jysxbXp0pXT/Uiu3LnE183L106Nbzr/pYNjYvaqZiIyDM/KnSNcJc+3yHsxyebZzET/IGN48Y/UV/lbp0o67Hdj8yfI67Psj3vpHIPA6cxf3Kx/u+c8ucbowKe9b8mFfm72z/cGM/sK/yvLa5Mtub0TNvIMTpHatVe5uXyOuz7I955PXZ9ke9XHITL9OPie7VTPLjMdGBh+9Zh35rNvef+QL/9nV7k0clW31dUU05Bd3qubeoq+/RuHh12vZHvOHXa9ke9VzEy312L3VU8+Mz9Th99mJvmc5R/3B9k+4+ZzlH/AHB9k+5trWOu39nvNY67f2e9XzFyn1uL/L+Sjnxm/qsL+b82K7XIlym3ad+jZ+1p/Oq/CYc/mN5UP3BY77aPDrp9UwcOuPar5i5L6zG76+FRPLfOfV4PdbxMY2uQjlTvVTTbyDCxNMazv3Yj2T1vJ4v/ACs/uHA/3in3tlcO1Hqq9ydI6578qo5DZH6zH96vgUzy3zv1eD7tvGxp8wHKz+4cD/bx73mj5O/K5On/AHNksaxrxx9r2TG9wlsXSOue/KNymf2q/wC0r/M9jkNkfp4/v1/7bzntnvoYHuW8bHfi7crv7myX/wCoWfzPLa+TjyqV0zN3LsotVdEU4619+81/4OOuv+0r/Mncjrr79fvVRyHyH0sf36/9tTPLXPfRwI+5bxsh+Ldyn/8AR5V/fLXvI+TdynaxE4PKoiZ0mf0y17Y8przcjrr79fvNyOuvv1+9VzI2f143vx4FPPTP9WD7k+NkvxaOUHsZd/ebfvPFo5Quxl395te9rTcjrq79XvNyOurv1e99OZWzv833/wDio557Q/yvc/5MpW/kx7b1U63L2Doq7FN6j79XLxYds/8AqcJ/a0NV7sddXen3m7HXV3p96rmZs7qxP4n/AIUc8dodeH7n/lle38l/bCqrS5jMNbp7VN2j7nm8Vvaf96We/S1Fux11d6febsddXen3q45G7N+jf35Uzyw2j9Kkfcj82XfFb2o/elnn0+nR7XseKpnXD/v+I4azwp9cNNbsddXen3p3fTPtlVHI7ZkfMtP37KJ5XbS6L1j7lWZPFTznzgju0+55LXyUs0qmfC7STbjommmPwhpfd9M+2Td9M+1VHJDZkfs7e/b81M8rdpfWV9yv5M2+KfjPOmv+zj3EfJPxUzTFW1ddNMz5VUW+b0xwaS3YN2FfNLZf1M/xL+JTzs2n9bHuU8LOvil0ee2J/sIPFKo89sT/AGEe9orT+NI9xp/Gke5VzT2X9R/PieNTzq2n9d/Jh+Fnej5JWE0/W7dZhRV1W8Pa0+vyrkcXtYT5KGTWblNWI2wzDGUROtVuuxZ4+jWLnBf2kdUT6oNI6o9iqvJXZcTr8BHtviT/AH6KbcqNpzGnw8+ymHH9ircm+TvydZbpcxmW/wAr3aZ1orv1Tw004zTTVxWDlez+T5NYow+V5bg8JaojSmKbFGvDhERXpq+j6ks7ltn5bLf4OFh09daxE+2eM+2WEzO0Mzmf8bFvf1WtMx7I4R3OMUx6fq1+6OhKRkGPAAAAAAAAQiqiJ6In0TzeunpcgHwM62J2Zz+qa80ymxfuzHG7RTp/W8meMuoY7kOyG/XNWEzC/gaZj6FFNM+vWalnI0jqYbM7HyWZnXFwMO0zxtppae21dJn2yyWBtHM4EaYeLeI6tdY7p1hT9zkBtaVeB2nxNU9FNdqj2eTU9W7yDY6nTwWczc69YXVpH8aGnplibck9mT+x07L3/wB7SyEbfz0ftNe2tf8AaIUTd5D9oaZnwWJs3Orerp/iHqXeRfbKmI8FawVzr3r9HqmOLQO76avbKN2OurvVe9aW5G7PnhGJHZf84lcV5SZyOPkT21/KYZ0r5Itv6OfK8DVEzpHg8RRPN0zpPCXq3eTTba1EzXlFGkc+7PVz6RENK7sR0z665OEa8afXK0tyHyXRiY0dtqz/AGQ+8cp8z00wp9lo/ull25sVtPajWvKb2kdm3V0c/ND0b+SZthbc3b+V4+mimdJqjD19HPM+Twhq/wAnrt/Z73juW7V2mbVdFm5RX5NyjcpnWKonXWNeZZ35C4OnmY94no1rWd/fC5rypxPnYVZ7LTH+0sj83Dp9P4+lL7+3+FwOC2wz3DZfFFGGtX/Jt29NI141RRMemZfAjmRLmMGcHFvhTMTNL2pMxwnyZmNY7kgYOJGLh1xIjTyqxbSeMaxqALd9gACX0tms3ryLPctzW3VVTNjERanT/wA2qKZ1jpjSXzUc2sxz0+XH108afXq+uFiWwr1xKzpatotE9UxOsKL0i9ZpbfFomJ7JjSWuMLepvWrN2iYmm9Zi9vUz/wAyInhPXxed03ktzarNtj8suXKtcTYjwV+NexM7vHXs6O4uosnmIzOBh41eF6Vt3xE6ezggvM4M4OLfDnjW017p0SAvFsAAAAAAAAAAAAAAAAh8nafP8Fs1kmZZ5mFcW8Ll9iblVU9cR+qj11zTD6tU9HXOnt4R9rOnyndup/2PYjL7/H/xGfWdeiqmJsxw5/8AVhNs7Rrs/KYmPPyojSkdd53Vjv3z6olmtj7Ptn81h4EcJnW89VI32nu3R65hSG1e0mYbWZ/mWf5lVrisdemmI3uEUUTMYfcifo+REcz5aI9HNEbtP1Rwp+z7kuZsTEtiWm95mbWmbWmeMzM6zM+10lh0rh1ilIiK1iIiI4RERpEQAPm+gAAAAAAAAAAAAAAAAAA+hs/n+Z7MZths5yjEVYbHYaryblMzxiJ1mzV/Ml88V0valotWZi0TExMbpiY4TEqL0res1tETWY0mJ3xMTxiYXdb+VdtlRbooq2Qym9VTTu1XZxd6NdOeuaabnkvZt/Kw2jmn9bshl1NfZpxd77/CKH0jqNI6myRym2nH/wAm/trh+Brs8m9mT/8AHpHZOJ419eNfnvRslgP71e+I52vlX5vNU+H2VwVFGnkzRiL3sny1BaR1GkK45UbT9It7uH4VE8mNmfUV96/iaC8a7HdOzOG/t7v5jxrsd5s4bn/5131/tM+6fxpHuNI/jRVzq2n9fPu08Knmvs36iPev4mi4+Vbb4f8AcFHNx0rueuPpHjW2/wBwU9+5+ZnTj1/ZBx6/shXzs2n9d/JX8lHNXZv1U+/b82kLXyrMBu/rskqoq6qJr97n41mVfua5/j97Nvldf2Qa1df2QrjlbtP62Pcqpnkns36qffs0pb+VZk2/Hhcou00dM077z+NXsx+7cX3KmZNauv7INauv/DHuVRyv2nH7Sv8ADqonkls2f2dvflprxq9meOmW4v0eRU88fKp2J0jeweYxVp5cRan7OHMy9rV1/wCGPcb1XXHdp9yqOWO0o+fT24cfmpnkhs36F/ZiT+TUXjU7D/8ASZj/AGM+5ztfKn5P53v0jD5pbj9iaLFX2wy1vVdcd2n3J3q46Y7tPuVc8tpfSw/4ceJTPI/Z30cT+J/xao8abk27Gb/3av3njTcm3DyM35+P+zV+3nZX36+1Hco9xv19qO5R7lXPPaXXhfwv+anmds7qxf4v/Fq7xoeSv/n53/cLvxzxoeSr/qM7/wDp9347KO/X2o7lHuN+vtR3KPcq56bR/wAn+FP/AHHnM3Z/+d/Fj/ttaWvlMclt2jfjF5tTHVVgrnx3Pxk+S7/rMz/udz4zI81VT0x3afca1df+GPcq567Q6sH+HPjUczMh1438SPA13b+UfyYXK9ynG5lE9dWEr+/wzz+MJyZ/vHGf3er4zHutXX9ke5HH+NPcrjltn/o4PuW8SmeReR+lje/Wf7Ww/GE5M/3jjP7vV0/+89ijl45N7lMVxml2InoqtT93hGNOP8aflNI7P+L/AEVRy3z3TTBn7to/uUzyKyXRfGj71fC2b8+nJx+9bn9nV+d5LPLdydXt7dzfd3effiY9nl8WLtI7P+L/AERpE89M96fwVxy4zv1eD3W/NRPInJ/WYvfX8m1/nn5PP3zT7f8A8hHLNyezMR/LNHGrd4z19M+XzMUbtPY/xz7zdp7E9+feq585z6rC/mU8yMp9bi/y/k3D87GwP7+wn9rH5kfOxsD+/sJ/ax+Zh7wdv/lz/aVe88Hb/wCXP9pV730595r6nC77KOY+V+uxe6rdFvlN2Fu0xXTtFl1MT0VX6PumXP5ydh/OTLP7xR72FPBWem1M/wDu1HgrH/Jn+1r96rn3mfqML3rfkp5jZf6/F92v5t3WeUTYm9XuUbS5VFU8014m3981Pp4XaHJMbMU4TO8rxUzPCMPi8PPqiKL08X5/TZsT/wAGfVer/CXtYHH43K6oryzF4nL6qZ3qarN653o1nnfbD5eYuvxmXpp9m9te6a6fi+OJyGwtPi8xeJ+1SunfFtfwfoPvdMxpHamY/BOsTxjmY02S5dtvdl66KbuYV7QYaJ0qtZjVPCOEaUT9WrQXJ1y37L7deCwVV3+S883dL2FxM6RVPNMYSqqfL6G67M5UZLPzFItOHiTwpiaRrPVW0ebM+rXVpm0uTOcyMTeYjEw443w9Z0jrtWfOiPXwWUOMT7Y54/HVybe1IAAAAAAEa+zreLEYqxhbVV/E3reGs0xrN67XTEeuap6nkzERrO6HsRM7oeWZ050b3DWI3o9Ex+KvdouWTZ7KLlzC4CLmY4ymNKblqPI1iJiI34nm1VznXK3tdm+9Tbu05PTM6Uzg6p5uOmszzy1DPcqshlZmsXnFvHzcOPK39U2+THe2HK7BzWPET5PkVnpvu7o4z3NA38dhMN/4jGYfDzHPF67bj271T07m02QWdYuZ5lkTEazEYi10f0bk8WYcVnGbY6ZqxuZ4rF1VfSm5XV09ej0fBWpmZ8HVMzxmfC1+3nali8u7a/FZeNPt4k691azH4thw+StdPPxp1+zSP95j+jT13b3ZS1rvZrh6tI18muOjq4vTucp+x1v6WPqnhr5MT98V87N25RHNRMf15TpEc1P2rC3LjNzwwsKPen8l1Xkvl444mJPdH5tB3uWTYizVNNWJxlUxGvkWK/s/WcZepVy5bERPkTmVfXrh6/xrURrVHNw7vuTrV1x3afctLcs9oTw+Bj/pzP8AW64jk1lI4/CT9+I/tXbc5dtno/3GFxVXHjv0T6p5ud6t3l5wkT+oy2ao6JrmpTetU9P+GDj1/ZC2tyu2lb9pWOzDj/y+1eT2Sj5lp7bz/wCFs3+XrGRP+zZJYuU9E13bnr5qny8z5b9pMdhb+Fw+VYXL/DUbkYy1dqmqNY0ndpqq4TxVzp6fsNIWWJyk2liRMTj2iJ3T5MUjdPriuseydfWuqbFyVJiYwqzMdc2n/fT8HK7duX7ld6/cqvXrte/cu1c868Z3pmUA1qZ13yzfAAeAAAieePZPt4pRVzAtvkHzKZnPMsu3P24rwlEz6JirT2rjp5vq4T6mdOSLGzhttsvsa7trF4ed+Z64pncj2tFUdP8AS4e3gnvkfmPhdn1rPHDvens18qPwtp7ET8osH4POTb6da2/tn/Tq5AN4auAAAAAAAAAAAAAAAieaQejm+Y4fKsuxuZ4qrdw2Dw83LsxPZiKomNen3sI7U51f2i2izfOcVcru3sVjardF25M67tNdUWqZ9G7o1L8oraKcn2AxOBt3PB3doKv0SiumePkxbuVbnp03WRYjSKInjNNG7Mz/ADeeqfShblznZvj4eVid2HXy7fvW4d1d8fvSmTkTkvIwcTMzG+9vIr+7Xj323T2JhIIwSYAAAAAAAAAAAAAAAAAAAAAAAAAAAAAAAAAAAAAAAAAAAAAAAAAAAAAAAAAAhzsYi/hcRZxWGu12MTh69/D4i3VMTTMTExuzTzxwcUPYnTfDyY13S1JyG8s3/ai3Z2V2iuxGe4e1pgcVXVH62KInWblU893XT2Lridf4+1+fGX4/E5VjsJmWDvXMPicBfjFW7tmZ10szFVVmJj9mdG4eT3a2xtnstlWeWqqfDYjDxTi7MT9CaN6Kor6p8nX1py5I7ctnKTlsedcXDiJraeN6cN/Xau6JnpiYnolCXKzYlcneMzgRph4kzFqxwpfju6otGsxHRMT1w7QISkVHoCAETPR06a6fjq8eIxFnDWrl+/dos2bNG/dvXJjSmI56qplTPKFytX8VVeyfZm7NrCx5GJzGmeNXRP6NVHMwu1NrZfZ2H8JjTvn5NI+VefVHV1zO6GTyOz8XOX8jDjd860/JrHrnr6o4y7ltlyp5Ls14TCYaqMxzTd3bdFmYmmmebTEVRzf6qW2h212h2lvV15hjbluxXP8A4GzVO5x9Eeh8Sqqu5XVcrrqruXJ1ruVTOs68ZmuZ6dURH/wg3avKHNbQmYtbyMPow6TMRp9qeNp7d3qSjkNkYGTiJiPKv03tGs/dj5sfj6ynhGlMbtOvN/8AJpCRrDOAAAAAAAAAAAAAAAABPNIA+xsbiasHtPlOIpmIqpvRb1n+fVEe3i1HbnWKZ67cT7WSsvueBx+XXJ14ZlRR5P8AOuUNZWJ8m1//AF4n7OKYOQmJrh5inVelvei0f2o65VU0vg2662jumPzeYBKbRAAAAAAAAAAAAAABFU8PrnT2zEfilxq6vRvd2aZj7QZi+VPnVeKz3Jsg1mLeWW4xu7E/86iOM0/Vp7FG9NU9dWrv3LpmM5nym5ziJr3qbWGjCUxrwjwPkxER0TpDoMc0OZdu5icfaGYv/mTWP3aebH4Q6T2HgfAZDL0/y4tPbfzp/GUgMCzoAAAAAAAAAAAAAAAAAAAAAAAAAAAAAAAAAAAAAAAAAAAAAAAAAAAAAAAAAAACOmnqmdJ9rRPyVc/uVYfaDZ7EVROt/wDSMHHVFNFUVRPo4/YztP3cVsfJnxldnlKt4GKv1eKyeu/XT17luqYn7GzcmsecHaWBMfOv8HPri8TVrXKPAjG2djxPzaeXHqmk6tcRzfZ7J0S40c0/0p+yuqHJ0k50HhxOJs4WzdxGIu0WLNijwl69XPCmKY1mqqemNHkqnTqj0z9WvHqjRSfKxyg3MXfvbNZReiMHanczDEUz9KY4VWNYnjDC7X2ph7NwJxr754Ur02t0R2dMz0Qyez8jfOYsYdd0cbW6K16Z7eqOmXy+UblIxO0mIuZXld2qxkdivd3qJ43JidJrqmPpWJmOb0uhRHNw06qY/ApiNI0jSIjSmPwS51zudxs7i2xsa3lWt3VjorWOiI6ITFlcrh5bDjDw40iO+Z65npmQBYLsAAAAAAAAAAAAAAAAAAABysf+IwX/APo0/wCehrTBccLhZnjP6JTrP9SlkuxxxOBjrzOiPbcp4taYSncsYajn3cLTGv8ARpiPwSxyD45n/pf/AGNA5V8MD/qf2PYAS2j4AAAAAAAAAAAAAAcauf8AqT99Dk4V/S/9ufvoeS9hgzbfEfpW1m0N6apqmM1rta69m5XGmvsfEjmh7mdcc92j1mf/AORXOef/ADq+D1HJ+PbysS9p6b2n+aXVOBXycOlY6KVj+WAB8H2AAAAAAAAAAAAAAAAAAAAAAAAAAAAAAAAAAAAAAAAAAAAAAAAAAAAAAAAAAAARPMtf5NGF8Lym2cZ0YfJa7XN27VUc/Qqj9qmP534r9+SnlFd3EbRZ3VREW8Hc/Q6a5j/mUTOlPDm3Yq9jZOTmDOLtLLxHRieX7kTb/ZrnKLGjC2dmJnpp5Hvz5P8Au0lRzT/Sn/PUmZiIKeEevX2zM/i8GLxFGFw9/E3ZiLeGtTeua/zaJqnj6nSUzERrPCIc5xGs6dbpfKptjGzeS1YXC165nmNPgaaKZ4001eTVfjq4Sz5VVVXVVVXVNyuqd6uuZ55mdd6deeeP2PtbZbQ4naXaDHZjfuzXZpuzawFMTwimJ3dzTXi+LEadXqc6coNqztHNWtEz8HTWmHHqid9u207+zRMeyMhGTwIifl20tefXPCOysbu3VIDWWcAAAAAAAAAAAAAAAAAAAACeYJ5ge1k9j9JzXLbHXjqa+7cp6Gr7MaU246rER7IZl2AwkY7bDJ8NPNVPhebsTrzeppyiNNI6qd32dfpTHyFwtMHHxOvErX3azP8AcjjlTfXEwqdVZn3p/wCLmAlBowAAAAAAAAAAAAAA4VfS/wDbn76HNxq5/wCrMe2aftBgHaS1TY2i2jt0xMa59cr8r03a/sfPdq5VMunLNvs+wc0btU35xXg9J1/W1VTFe72dJ53VYirT6NXdlylm8OcPHxKT83EvHdaXU2VxIxMHDvHC1KT31gDSrsVd2TSrsVd2VougNKuxV3ZNKuxV3ZADSrsVd2TSrsVd2QA0q7FXdk0q7FXdkANKuxV3ZNKuxV3ZADdr7Ffdk3a+xX3Ze6AG7X2K+7Ju19ivuyaAG7X2K+7Ju19ivuyaAG7X2K+7Ju19ivuyaAG7X2K+7Ju19ivuyaAG7X2K+7Ju19ivuyaAG7X2K+7Ju19ivuyaAG7X2K+7Ju19ivuyaAG7X2K+7Ju19ivuyaAG7X2K+7Ju19ivuyaAG7X2K+7Ju19ivuyaAG7X2K+7Ju19ivuyaAG7X2K+7Ju19ivuyaAG7X2K+7Ju19ivuyaAG7X2K+7Ju19ivuyaAG7X2K+7Ju19ivuyaAG7X2K+7Ju19ivuyaAG7X2K+7Ju19ivuyaAG7X2K+7Ju19ivuyaAG7X2K+7Ju19ivuyaAG7X2K+7Ju19ivuyaAG7X2K+7Ju19ivuyaAG7X2K+7Ju19ivuyaAG7X2K+7Ju19ivuyaAG7X2K+7Ju19ivuyaAG7X2K+7Ju19ivuyaDjVrpXu8aoo8iPTGm7H16ti8gOztvI+T3LMRNnwWLzun9LxcenSuimZ9OkT7WSshyzEZvnmUZZh7VV2/icxp3rNFM6zT4SnwtcU6caYjVvPKMvsZXl+Cy7DUxTh8Hhot24j+bTu1cPr17yT+QuU8vHxcxMbqVilf3r7507KxpPajPlvm/IwcLLxO+9pvb92m6Ne2Z1jse9zQ6DyvbQ15Lsxcw9i5u4vMa/wBHqoif2atYrmPVo77Xx0p5t7hr6pn8GeuV3P6842qu4SmNLGSxOEqoomdJmZmd+qOirWW98qM/+iZG/kzpfF+Lrpx875U+yuso72HlP0jNV1jzaefb2cI9ttHRojd0ojjFPCNfTx53IimqP2K9fqlOlXYq7sueUwIE6VdiruyaVdiruyCBOlXYq7smlXYq7sggTpV2Ku7JpV2Ku7IIE6VdiruyaVdiruyCBOlXYq7smlXYq7sggTpV2Ku7JpV2Ku7IIE6VdiruyaVdiruyCBOlXYq7smlXYq7sggTpV2Ku7JpV2Ku7IIE6VdiruyaVdiruyCBOlXYq7smlXYq7sghE9Eely0q7FXdlxmKo4zTVEU+VOsT+zxB3/kVy/wDStqZx27FX8n2JtzM9HhKdPxX9TGmv9L751VXyF5TVh8rzPNaqI0zC5pZuf0IneiPXotWnmj6vwdBck8t8Ds7DmY0nEm2JPtnSO+sQiLb+N8JnLxHCkRTujWfxmUgNxa4AAAAAAAAAAAAAAImNY+32TExP2JAV3yh8iuyvKDjbOZ465iMszKinwd7G4KmnW5FMRFNu7E1fRh1DxVdj9Z//AFFnP1btv4i8xgMxsHIZjEti4uBS17Tra2+NZ650mI19em9ncDbmfwMOMLCx71pWNKxunSOqNYmdPV0KM8VbY/zizjuWviHirbH+cWcdy18ReYt+bOzPRsP+bxLjnJtL0i/dXwqM8VbY/wA4s47lr4h4q2x/nFnHctfEXmHNnZno2H/N4jnJtL0i/dXwqM8VbY/zizjuWviHirbH+cWcdy18ReYc2dmejYf83iOcm0vSL91fCozxVtj/ADizjuWviHirbH+cWcdy18ReYc2dmejYf83iOcm0vSL91fCozxVtj/OLOO5a+IeKrsf5xZz3bXxF5hzZ2Z6Nh/zeI5ybS9Iv/L4VC3fknbJ111VU7WZ9bieaimmzw+rW44+KZsp535/3bPxV+Cnmvsv0anffxq+c20/SL91PAoPxTNlPO/P+5Z+IeKZsp535/wByz8Rfg85r7L9Gp338Zzn2n6Rfup4FB+KZsp535/3LPxDxTNlPO/P+5Z+IvwOa+y/Rqd9/Gc59p+kX7qeBQfimbKed+f8Acs/EPFM2U878/wC5Z+IvwOa+y/Rqd9/Gc59p+kX7qeBQfimbKed+f9yz8Q8UzZTzvz/uWfiL8Dmvsv0anffxnOfafpF+6ngUH4pmynnfn/cs/EPFM2U878/7ln4i/A5r7L9Gp338Zzn2n6Rfup4FB+KZsp535/3LPxDxTNlPO/P+5Z+IvwOa+y/Rqd9/Gc59p+kX7qeBQfimbKed+f8Acs/EPFM2U878/wC5Z+IvwOa+y/Rqd9/Gc59p+kX7qeBQfimbKed+f9yz8Q8UzZTzvz/uWfiL8Dmvsv0anffxnOfafpF+6ngUH4pmynnfn/cs/EPFM2U878/7ln4i/A5r7L9Gp338Zzn2n6Rfup4FB+KZsp535/3LPxDxTNlPO/P+5Z+IvwOa+y/Rqd9/Gc59p+kX7qeBQfimbKed+f8Acs/EPFM2U878/wC5Z+IvwOa+y/Rqd9/Gc59p+kX7qeBQfimbKed+f9yz8Q8UzZTzvz/uWfiL8Dmvsv0anffxnOfafpF+6ngUH4pmynnfn/cs/EPFM2U878/7ln4i/A5r7L9Gp338Zzn2n6Rfup4FB+KZsp535/3LPxDxTNlPO/P+5Z+IvwOa+y/Rqd9/Gc59p+kX7qeBQfimbKed+f8Acs/EPFM2U878/wC5Z+IvwOa+y/Rqd9/Gc59p+kX7qeBQfimbKed+f9yz8Q8UzZTzvz/uWfiL8Dmvsv0anffxnOfafpF+6ngUH4pmynnfn/cs/EPFM2U878/7ln4i/A5r7L9Gp338Zzn2n6Rfup4FB+KZsp535/3LPxDxTNlPO/P+5Z+IvwOa+y/Rqd9/Gc59p+kX7qeBQfimbKed+f8Acs/EPFM2U878/wC5Z+IvwOa+y/Rqd9/Gc59p+kX7qeBQfimbKed+f9yz8Q8UzZTzvz/uWfiL8Dmvsv0anffxnOfafpF+6ngUH4pmynnfn/cs/EPFM2U878/7ln4i/A5r7L9Gp338Zzn2n6Rfup4FB+KZsp535/3LPxDxTNlPO/P+5Z+IvwOa+y/Rqd9/Gc59p+kX7qeBQfimbKed+f8Acs/EPFM2U878/wC5Z+IvwOa+y/Rqd9/Gc59p+kX7qeBQfimbKed+f9yz8Q8UzZTzvz/uWfiL8Dmvsv0anffxnOfafpF+6ngUH4pmynnfn/cs/ER4peynnfn/AHbPxV+hzX2X6NTvv4znPtP0i/dTwK25PuQ7ZPYLHxmuEu4jNs0t0eDw2Nx1NOtEVx5UURFUrIiNP46+dIz2VyeDlMP4LApWldddK9c9M9Mz65lgs1m8bNX+Ex72vbTTW3VHRHREeqIRMRMxPVzezRXm0fI3kGf5pic1qzLG5fexlfhMRbw0U6TPanWrnWIPnnMhl87SKZjDriVidYidd08NY0mJ4esy2bxctabYN5pMxpMxpvj2xMKn+YLIfOLNu7b/ADnzBZD5xZt3bf51sDDc2NmejU77+Nkv15nvrrd1fCqf5gsh84s27tv858wWQ+cWbd23+dbAc2NmejU77+M/Xme+ut3V8Kp/mCyHzizbu2/znzBZD5xZt3bf51sBzY2Z6NTvv4z9eZ7663dXwqn+YLIfOLNu7b/OfMFkPnFm3dt/nWwHNjZno1O+/jP15nvrrd1fCqf5gsh84s27tv8AOfMFkPnFm3dt/nWwHNjZno1O+/jP15nvrrd1fCqf5gsh84s27tv858wWQ+cWbd23+dbAc2NmejU77+M/Xme+ut3V8Kp/mCyHzizbu2/znzBZD5xZt3bf51sBzY2Z6NTvv4z9eZ7663dXwqn+YLIfOLNu7b/OfMFkPnFm3dt/nWwHNjZno1O+/jP15nvrrd1fCqf5gsh84s27tv8AOfMFkPnFm3dt/nWwHNjZno1O+/jP15nvrrd1fCqf5gsh84s27tv858wWQ+cWbd23+dbAc2NmejU77+M/Xme+ut3V8Kp/mCyHzizbu2/znzBZD5xZt3bf51sBzY2Z6NTvv4z9eZ7663dXwqn+YLIfOLNu7b/OfMFkPnFm3dt/nWwHNjZno1O+/jP15nvrrd1fCqf5gsh84s27tv8AO52OQXZ+3dt3Ks9zS9TTVrVarpt6T101eXzaQtUexyZ2ZG/9Gp338bydt56f21u6vhellWVYLJsDYy/L7NNjC4enS3RT6ta565mfve6DZaUrSsVrERERpERuiIjhEQwtrTaZmZ1mZ1mZ4zIArUgAAAAAAAAAAAAAAAAAAAAAAAAAAAAAAAAAAAAAAAAAAAAAAAAAAAAAAAAAAAAAAAAAAAAAAAAAAAAAAAAAAAAAAAAAAAAAAAAAAAAAAAAAAAAAAAAAAAAAAAAAAAAAAAAAAAAAAAAAAAAAAAAAAAAAAAAAAAAAAAAAAAAAAAAAAAAAAAAAAAAAAAAAAAAAAAAAAAAAAAAAAAAAAAAAAAAAAAAAAAAAAAAAAAAAAAAAAAAAAAAAAAAAAAAAAAAAAAAAAAAAAAAAAAAAAAAAAAAAAAAAAAAAAAAAAAAAAAAAAAAAAAAAAAAAAAAAAAAAAAAAAAAAAAAAAAAAAAAAAAAAAAAAAAAAAAAAAAAAAAAAAAAAAAAAAAAAAAAAAAAAAAAAAAAAAAAAAAAAAAAAAAAAAAAAAAAAAAAAAAAAAAAAAAAAAAAAAAAAAAAAAAAAAAAAAAAAAAAAAAAAAAAAAAAAAAAAAAAAAAAAAAAAAAAAAAAAAAAAAAAAAAAAAAAAAAAAAAAAAAAAAAAAAAAAAAAAAAAAAAAAAAAAAAAAAAAAAAAAAAAAAAAAAAAAAAAAAAAAAAAAAAAAAAAAAAAAAAAAAAAAAAAAAAAAAAAAAAAAAAAAAAAAAAAAAAAAAAAAAAAAAAAAAAAAAAAAAAAAAAAAAAAAAAAAAAAAAAAAAAAAAAAAAAAAAAAAAAAAAAAAAAAAAAAAAAAAAAAAAAAAAAAAAAAAAAAAAAAAAAAAAAAAAAAAAAAAAAAAAAAAAAAAAAAAAAAAAAAAAAAAAAAAAAAAAAAAAAAAAAAAAAAAAAAAAAAAAAAAAAAAAAAAAAAAAAAAAAAAAAAAAAAAAAAAAAAAAAAAAAAAAAAAAAAAAAAAAAAAAAAAAAAAAAAAAAAAAAAAAAAAAAAAAAAAAAAAAAAAAAAAAAAAAAAAAAAAAAAAAAAAAAAAAAAAAAAAAAAAAAAAAAAAAAAAAAAAAAAAAAAAAAAAAAAAAAAAAAAAAAAAAAAAAAAAAAAAAAAAAAAAAAAAAAAAAAAAAAAAAAAAAAAAAAAAAAAAAAAAAAAAAAAAAAAAAAAAAAAAAAAAAAAAAAAAAAAAAAAAAAAAAAAAAAAAAAAAAAAAAAAAAAAAAAAAAAAAAAAAAAAAAAAAAAAAAAAAAAAAAAAAAAAAAAAAAAAAAAAAAAAAAAAAAAAAAAAAAAAAAAAAAAAAAAAAAAAAAAAAAAAAAAAAAAAAAAAAAAAAAAAAAAAAAAAAAAAAAAAAAAAAAAAAAAAAAAAAAAAAAAAAAAAAAAAAAAAAAAAAAAAAAAAAAAAAAAAAAAAAAAAAAAAAAAAAAAAAAAAAAAAAAAAAAAAAAAAAAAAAAAAAAAAAAAAAAAAAAAAAAAAAAAAAAAAAAAAAAAAAAAAAAAAAAAAAAAAAAAAAAAAAAAAAAAAAAAAAAAAAAAAAAAAAAAAAAAAAAAAAAAAAAAAAAAAAAAAAAAAAAAAAAAAAAAAAAAAAAAAAAAAAAAAAAAAAAAAAAAAAAAAAAAAAAAAAAAAAAAAAAAAAAAAAAAAAAAAAAAAAAAAAAAAAAAAAAAAAAAAAAAAAAAAAAAAAAAAAAAAAAAAAAAAAAAAAAAAAAAAAAAAAAAAAAAAAAAAAAAAAAAAAAAAAAAAAAAAAAAAAAAAAAAAAAAAAAAAAAAAAAAAAAAAAAAAAAAAAAAAAAAAAAAAAAAAAAAAAAAAAAAAAAAAAAAAAAAAAAAAAAAAAAAAAAAAAAAAAAAAAAAAAAAAAAAAAAAAAAAAAAAAAAAAAAAAAAAAAAAAAAAAAAAAAAAAAAAAAAAAAAAAAAAAAAAAAAAAAAAAAAAAAAAAAAAAAAAAAAAAAAAAAAAAAAAAAAAAAAAAAAAAAAAAAAAAAAAAAAAAAAAAAAAAAAAAAAAAAAAAAAAAAAAAAAAAAAAAAAAAAAAAAAAAAAAAAAAAAAAAAAAAAAAAAAAAAAAAAAAAAAAAAAAAAAAAAAAAAAAAAAAAAAAAAAAAAAAAAAAAAAAAAAAAAAAAAAAAAAAAAAAAAAAAAAAAAAAAAAAAAAAAAAAAAAAAAAAAAAAAAAAAAAAAAAAAAAAAAAAAAAAAAAAAAAAAAAAAAAAAAAAAAAAAAAAAAAAAAAAAAAAAAAAAAAAAAAAAAAAAAAAAAAAAAAAAAAAAAP//Z;clipPath=inset(25% 6.33% 33.33% 3.67%);" vertex="1" parent="1">
          <mxGeometry x="530" y="133.9" width="95.45" height="44.19" as="geometry" />
        </mxCell>
      </root>
    </mxGraphModel>
  </diagram>
</mxfile>
